HIERARCHY
ROOT Hips
{
  OFFSET -0.0292666 18.5223 -4.19344
  CHANNELS 6 Xposition Yposition Zposition Zrotation Xrotation Yrotation
  JOINT LHipJoint
  {
    OFFSET 0 0 0
    CHANNELS 6 Xposition Yposition Zposition Zrotation Xrotation Yrotation
    JOINT LeftUpLeg
    {
      OFFSET 1.8 -1.4 0.085
      CHANNELS 6 Xposition Yposition Zposition Zrotation Xrotation Yrotation
      JOINT LeftLeg
      {
        OFFSET 2.215 -6 0
        CHANNELS 6 Xposition Yposition Zposition Zrotation Xrotation Yrotation
        JOINT LeftFoot
        {
          OFFSET 2.5 -6.9 0
          CHANNELS 6 Xposition Yposition Zposition Zrotation Xrotation Yrotation
          JOINT LeftToeBase
          {
            OFFSET 0.2 -0.5 1.95
            CHANNELS 6 Xposition Yposition Zposition Zrotation Xrotation Yrotation
            End Site
            {
              OFFSET 0 0 1
            }
          }
        }
      }
    }
  }
  JOINT RHipJoint
  {
    OFFSET 0 0 0
    CHANNELS 6 Xposition Yposition Zposition Zrotation Xrotation Yrotation
    JOINT RightUpLeg
    {
      OFFSET -1.8 -1.4 0.085
      CHANNELS 6 Xposition Yposition Zposition Zrotation Xrotation Yrotation
      JOINT RightLeg
      {
        OFFSET -2.215 -6 0
        CHANNELS 6 Xposition Yposition Zposition Zrotation Xrotation Yrotation
        JOINT RightFoot
        {
          OFFSET -2.5 -6.9 0
          CHANNELS 6 Xposition Yposition Zposition Zrotation Xrotation Yrotation
          JOINT RightToeBase
          {
            OFFSET -0.2 -0.5 1.95
            CHANNELS 6 Xposition Yposition Zposition Zrotation Xrotation Yrotation
            End Site
            {
              OFFSET 0 0 1
            }
          }
        }
      }
    }
  }
  JOINT LowerBack
  {
    OFFSET 0 0 0
    CHANNELS 6 Xposition Yposition Zposition Zrotation Xrotation Yrotation
    JOINT Spine
    {
      OFFSET -0.087 1.94 -0.2889
      CHANNELS 6 Xposition Yposition Zposition Zrotation Xrotation Yrotation
      JOINT Spine1
      {
        OFFSET 0 1.95 0.06
        CHANNELS 6 Xposition Yposition Zposition Zrotation Xrotation Yrotation
        JOINT Neck
        {
          OFFSET 0 0 0
          CHANNELS 6 Xposition Yposition Zposition Zrotation Xrotation Yrotation
          JOINT Neck1
          {
            OFFSET 0 1.6 0.34
            CHANNELS 6 Xposition Yposition Zposition Zrotation Xrotation Yrotation
            JOINT Head
            {
              OFFSET 0 1.667 -0.24
              CHANNELS 6 Xposition Yposition Zposition Zrotation Xrotation Yrotation
              End Site
              {
                OFFSET 0 1.686 -0.12
              }
            }
          }
        }
        JOINT LeftShoulder
        {
          OFFSET 0 0 0
          CHANNELS 6 Xposition Yposition Zposition Zrotation Xrotation Yrotation
          JOINT LeftArm
          {
            OFFSET 2.7 1.55 -0.73
            CHANNELS 6 Xposition Yposition Zposition Zrotation Xrotation Yrotation
            JOINT LeftForeArm
            {
              OFFSET 5.45 0 0
              CHANNELS 6 Xposition Yposition Zposition Zrotation Xrotation Yrotation
              JOINT LeftHand
              {
                OFFSET 3.45 0 0
                CHANNELS 6 Xposition Yposition Zposition Zrotation Xrotation Yrotation
                JOINT LeftFingerBase
                {
                  OFFSET 0 0 0
                  CHANNELS 6 Xposition Yposition Zposition Zrotation Xrotation Yrotation
                  JOINT LeftHandIndex1
                  {
                    OFFSET 0.75 0 0
                    CHANNELS 6 Xposition Yposition Zposition Zrotation Xrotation Yrotation
                    End Site
                    {
                      OFFSET 0.6 0 0
                    }
                  }
                }
                JOINT LThumb
                {
                  OFFSET 0 0 0
                  CHANNELS 6 Xposition Yposition Zposition Zrotation Xrotation Yrotation
                  End Site
                  {
                    OFFSET 0.59 0 0.59
                  }
                }
              }
            }
          }
        }
        JOINT RightShoulder
        {
          OFFSET 0 0 0
          CHANNELS 6 Xposition Yposition Zposition Zrotation Xrotation Yrotation
          JOINT RightArm
          {
            OFFSET -2.7 1.55 -0.73
            CHANNELS 6 Xposition Yposition Zposition Zrotation Xrotation Yrotation
            JOINT RightForeArm
            {
              OFFSET -5.45 0 0
              CHANNELS 6 Xposition Yposition Zposition Zrotation Xrotation Yrotation
              JOINT RightHand
              {
                OFFSET -3.45 0 0
                CHANNELS 6 Xposition Yposition Zposition Zrotation Xrotation Yrotation
                JOINT RightFingerBase
                {
                  OFFSET 0 0 0
                  CHANNELS 6 Xposition Yposition Zposition Zrotation Xrotation Yrotation
                  JOINT RightHandIndex1
                  {
                    OFFSET -0.75 0 0
                    CHANNELS 6 Xposition Yposition Zposition Zrotation Xrotation Yrotation
                    End Site
                    {
                      OFFSET -0.6 0 0
                    }
                  }
                }
                JOINT RThumb
                {
                  OFFSET 0 0 0
                  CHANNELS 6 Xposition Yposition Zposition Zrotation Xrotation Yrotation
                  End Site
                  {
                    OFFSET -0.59 0 0.59
                  }
                }
              }
            }
          }
        }
      }
    }
  }
}
MOTION
Frames:	4
Frame Time:	0.00833333
-0.0292333 18.5224 -4.19351 -0.000153087 -0.00329204 0.00432353 0 0 0 -4.88158e-21 0 3.10601e-18 1.8 -1.4 0.085 -17.6608 -4.577 1.60088 2.215 -6 8.88178e-16 4.6544 4.41538 13.9682 2.5 -6.9 4.44089e-16 -2.81839 0.832908 -15.9102 0.2 -0.5 1.95 -1.69076e-06 -2.11457e-13 -2.62516e-14 0 0 0 -4.88158e-21 0 3.10601e-18 -1.8 -1.4 0.085 16.381 1.62467 5.38613 -2.215 -6 -8.88178e-16 5.0149 1.23486 -3.06631 -2.5 -6.9 0 -1.74406 -3.25151 -2.26802 -0.2 -0.5 1.95 -9.57843e-16 4.85314e-20 7.76503e-19 0 0 0 -4.88158e-21 0 3.10601e-18 -0.087 1.94 -0.2889 -0.000708996 0.00154437 0.0008809 0 1.95 0.06 0.00134925 -0.000954366 0.000672679 0 0 0 0.00121195 -15.9968 -2.09769e-08 0 1.6 0.34 0.00134805 21.0032 -0.000961244 0 1.667 -0.24 -0.000294324 10.9968 -0.000984455 0 0 0 0.339154 -0.00134865 3.48386 2.7 1.55 -0.73 -19.9395 -39.3031 -15.7828 5.45 0 0 0.696308 49.6038 0.000139214 3.45 0 0 23.3873 -4.07654 -12.2512 0 0 0 -3.28308e-06 -7.71969e-07 -1.44725e-07 0.75 -3.55271e-15 0 1.19271e-15 -2.13694e-15 3.18055e-15 0 0 0 1.83876e-15 4.47266e-16 6.36111e-15 0 0 0 -0.328298 0.00650739 -3.49567 -2.7 1.55 -0.73 8.60385 -10.7337 4.37488 -5.45 -7.10543e-15 0 8.9192 -0.528553 7.03198 -3.45 3.55271e-15 8.88178e-16 -2.89715 -0.351791 -2.68053 0 0 0 5.96354e-16 0 -1.59028e-15 -0.75 3.55271e-15 -8.88178e-16 2.20695e-32 1.59028e-15 -7.95139e-16 0 0 0 7.95139e-16 0 -7.95139e-16 
-0.0291423 18.5229 -4.19381 -0.000146378 -0.0191554 0.0208107 0 0 0 -6.06643e-21 3.10601e-18 -0 1.8 -1.4 0.085 -17.6555 -4.58962 1.59787 2.215 -6 4.44089e-16 4.64995 4.45303 13.9809 2.5 -6.9 0 -2.82295 0.85458 -15.9236 0.2 -0.5 1.95 -1.69076e-06 -2.11451e-13 -2.62473e-14 0 0 0 -6.06643e-21 3.10601e-18 -0 -1.8 -1.4 0.085 16.3822 1.61642 5.38252 -2.215 -6 0 5.02169 1.28689 -3.0563 -2.5 -6.9 0 -1.74322 -3.28409 -2.31188 -0.2 -0.5 1.95 3.02971e-17 -3.10601e-18 -3.10601e-18 0 0 0 -6.06643e-21 3.10601e-18 -0 -0.087 1.94 -0.2889 -0.00262602 0.0103763 0.00428534 1.38778e-17 1.95 0.06 0.0026497 -0.00450707 0.00398233 0 0 0 0.00695421 -15.9815 -2.09753e-08 0 1.6 0.34 0.00773665 21.0185 -0.00551618 -1.38778e-17 1.667 -0.24 0.000904616 10.9782 -0.00433883 0 0 0 0.339154 -0.00134865 3.48386 2.7 1.55 -0.73 -19.8685 -39.1468 -15.7188 5.45 3.55271e-15 -1.77636e-15 0.0504889 47.7022 0.00337188 3.45 3.55271e-15 -8.88178e-16 10.696 -6.16879 1.13948 0 0 0 -3.28308e-06 -7.71969e-07 -1.44725e-07 0.75 0 0 2.5842e-15 -1.39149e-15 -0 0 0 0 4.96962e-17 -1.98785e-16 1.59028e-15 0 0 0 -0.325774 0.00650739 -3.49567 -2.7 1.55 -0.73 8.63041 -10.7381 4.38675 -5.45 0 0 8.91272 -0.553124 7.02787 -3.45 3.55271e-15 -8.88178e-16 -2.94253 -0.349502 -2.66384 0 0 0 -2.5842e-15 0 -1.59028e-15 -0.75 3.55271e-15 0 -4.37326e-15 0 -0 0 0 0 -2.38542e-15 0 -7.95139e-16 
-0.0290579 18.5233 -4.19411 -0.00013031 -0.0354433 0.037222 0 0 0 3.03321e-20 -1.2424e-17 -0 1.8 -1.4 0.085 -17.65 -4.6029 1.59465 2.215 -6 0 4.64541 4.49249 13.9938 2.5 -6.9 0 -2.82731 0.87661 -15.9369 0.2 -0.5 1.95 -1.69076e-06 -2.11463e-13 -2.62551e-14 0 0 0 3.03321e-20 -1.2424e-17 -0 -1.8 -1.4 0.085 16.3836 1.60806 5.37883 -2.215 -6 0 5.02855 1.33984 -3.0465 -2.5 -6.9 8.88178e-16 -1.74273 -3.317 -2.35582 -0.2 -0.5 1.95 -2.27243e-15 -1.55301e-18 6.21202e-18 0 0 0 3.03321e-20 -1.2424e-17 -0 -0.087 1.94 -0.2889 -0.00454833 0.0197267 0.00769283 0 1.95 0.06 0.00385548 -0.00833452 0.00731325 0 0 0 0.0128396 -15.9659 -2.09736e-08 1.38778e-17 1.6 0.34 0.0142872 21.0341 -0.0101856 -1.38778e-17 1.667 -0.24 0.00205291 10.9588 -0.00761727 0 0 0 0.339154 -0.00134865 3.48386 2.7 1.55 -0.73 -19.7969 -38.9885 -15.6546 5.45 7.10543e-15 1.77636e-15 -0.603885 45.7756 0.00676259 3.45 0 0 -1.22608 -7.92738 14.8142 0 0 0 -3.28308e-06 -7.71969e-07 -1.44725e-07 0.75 7.10543e-15 0 5.66536e-15 -1.98785e-15 -0 0 0 0 -2.83268e-15 7.95139e-16 -0 0 0 0 -0.323236 0.00650739 -3.49567 -2.7 1.55 -0.73 8.6572 -10.7424 4.39878 -5.45 3.55271e-15 8.88178e-16 8.9063 -0.578537 7.0238 -3.45 -3.55271e-15 0 -2.98824 -0.347247 -2.64748 0 0 0 1.19271e-15 -1.59028e-15 -7.95139e-16 -0.75 3.55271e-15 8.88178e-16 5.96354e-16 -1.59028e-15 -7.95139e-16 0 0 0 1.39149e-15 -1.59028e-15 -0 
-0.0288995 18.5237 -4.19436 -0.000108596 -0.0470614 0.0544685 0 0 0 1.81993e-20 1.2424e-17 1.2424e-17 1.8 -1.4 0.085 -17.6458 -4.60898 1.59386 2.215 -6 -4.44089e-16 4.64157 4.51213 14.004 2.5 -6.9 4.44089e-16 -2.83381 0.894656 -15.9521 0.2 -0.5 1.95 -1.69076e-06 -2.11482e-13 -2.62582e-14 0 0 0 1.81993e-20 1.2424e-17 1.2424e-17 -1.8 -1.4 0.085 16.3835 1.60102 5.37614 -2.215 -6 8.88178e-16 5.03441 1.38256 -3.03458 -2.5 -6.9 0 -1.73903 -3.34617 -2.39886 -0.2 -0.5 1.95 5.07799e-15 1.55301e-18 -0 0 0 0 1.81993e-20 1.2424e-17 1.2424e-17 -0.087 1.94 -0.2889 -0.00642484 0.0233752 0.0110668 0 1.95 0.06 0.00610737 -0.00913967 0.0104103 0 0 0 0.0171507 -15.9544 -2.09724e-08 -1.38778e-17 1.6 0.34 0.0190873 21.0455 -0.0136067 0 1.667 -0.24 0.0037319 10.9475 -0.011726 0 0 0 0.339154 -0.00134865 3.48386 2.7 1.55 -0.73 -19.7364 -38.8526 -15.597 5.45 0 -1.77636e-15 -1.16064 44.125 0.00586615 3.45 0 0 -10.6964 -8.89347 26.5257 0 0 0 -3.28308e-06 -7.71969e-07 -1.44725e-07 0.75 3.55271e-15 0 4.37326e-15 -2.78299e-15 6.36111e-15 0 0 0 3.37934e-15 -7.95139e-16 3.18055e-15 0 0 0 -0.320844 0.00650739 -3.49567 -2.7 1.55 -0.73 8.68137 -10.7466 4.40921 -5.45 0 8.88178e-16 8.89928 -0.594692 7.01921 -3.45 0 0 -3.03031 -0.344612 -2.62742 0 0 0 -1.98785e-16 1.59028e-15 -1.59028e-15 -0.75 -3.55271e-15 0 9.93923e-16 0 -1.59028e-15 0 0 0 2.20695e-32 1.59028e-15 -7.95139e-16 
